<svg id="svg" version="1.1" xmlns="http://www.w3.org/2000/svg" xmlns:xlink="http://www.w3.org/1999/xlink" width="400" height="400" viewBox="0, 0, 400,400"><g id="svgg"><path id="path0" d="M205.457 51.108 C 205.210 51.507,203.540 58.473,200.015 73.800 C 198.121 82.037,195.975 91.283,192.543 106.000 C 191.748 109.410,190.948 112.830,190.767 113.600 C 190.381 115.235,190.124 116.343,188.448 123.600 C 187.762 126.570,186.838 130.530,186.395 132.400 C 185.952 134.270,185.434 136.520,185.243 137.400 C 185.052 138.280,183.976 142.960,182.851 147.800 C 181.726 152.640,179.092 163.980,176.998 173.000 C 174.905 182.020,172.270 193.360,171.143 198.200 C 170.016 203.040,168.929 207.720,168.728 208.600 C 168.528 209.480,168.210 210.830,168.022 211.600 C 167.834 212.370,167.486 213.900,167.248 215.000 C 167.011 216.100,165.279 223.570,163.399 231.600 C 158.650 251.894,155.944 263.553,155.602 265.200 C 155.354 266.391,153.504 274.416,151.407 283.400 C 150.647 286.655,149.440 291.852,148.435 296.200 C 145.987 306.786,145.063 310.748,143.772 316.200 C 142.991 319.500,142.021 323.640,141.618 325.400 C 140.355 330.912,138.394 339.238,137.382 343.384 C 136.847 345.576,136.552 347.512,136.727 347.687 C 136.902 347.862,150.604 347.959,167.175 347.903 L 197.306 347.800 198.640 342.000 C 199.373 338.810,200.509 333.950,201.163 331.200 C 201.817 328.450,203.375 321.790,204.626 316.400 C 205.876 311.010,207.330 304.800,207.857 302.600 C 208.385 300.400,208.968 297.880,209.154 297.000 C 209.594 294.914,212.549 282.171,213.839 276.800 C 215.152 271.332,215.636 269.251,217.609 260.600 C 218.512 256.640,219.593 251.960,220.011 250.200 C 220.429 248.440,222.129 241.150,223.790 234.000 C 226.830 220.910,230.626 204.596,231.235 202.000 C 231.416 201.230,231.728 199.880,231.928 199.000 C 232.129 198.120,233.237 193.350,234.390 188.400 C 235.544 183.450,236.921 177.510,237.451 175.200 C 237.981 172.890,238.851 169.200,239.385 167.000 C 239.918 164.800,240.637 161.740,240.982 160.200 C 241.588 157.498,244.002 147.083,244.784 143.800 C 245.239 141.891,245.986 138.624,247.391 132.400 C 247.962 129.870,248.597 127.170,248.800 126.400 C 249.004 125.630,249.438 123.830,249.764 122.400 C 250.404 119.596,256.016 95.454,257.250 90.200 C 257.663 88.440,258.540 84.660,259.200 81.800 C 259.860 78.940,260.762 75.070,261.205 73.200 C 261.648 71.330,262.197 68.990,262.425 68.000 C 262.653 67.010,262.989 65.570,263.172 64.800 C 263.355 64.030,264.072 60.880,264.766 57.800 C 265.460 54.720,266.124 51.885,266.241 51.500 C 266.468 50.754,205.917 50.363,205.457 51.108 M286.497 137.278 L 286.600 167.355 295.400 172.305 C 300.240 175.027,305.550 177.987,307.200 178.883 C 308.850 179.779,310.380 180.641,310.600 180.798 C 310.820 180.956,311.990 181.625,313.200 182.284 C 314.410 182.944,316.300 183.988,317.400 184.603 C 321.677 186.998,335.205 194.620,339.140 196.852 C 343.155 199.129,344.188 199.527,344.467 198.900 C 344.540 198.735,346.850 196.545,349.600 194.034 C 352.350 191.523,356.940 187.303,359.800 184.656 C 372.107 173.266,374.389 171.160,377.800 168.048 C 379.780 166.241,381.400 164.553,381.400 164.295 C 381.400 163.792,381.063 163.586,343.600 141.211 C 329.850 132.998,316.992 125.295,315.026 124.091 C 313.061 122.888,310.901 121.593,310.226 121.213 C 309.552 120.833,304.002 117.525,297.893 113.861 C 291.784 110.197,286.697 107.200,286.590 107.200 C 286.483 107.200,286.441 120.735,286.497 137.278 M45.724 208.900 C 40.243 213.795,32.528 220.677,28.580 224.194 C 24.631 227.711,20.608 231.333,19.639 232.243 L 17.878 233.897 20.039 235.276 C 21.228 236.034,27.150 239.634,33.200 243.276 C 39.250 246.917,47.980 252.190,52.600 254.993 C 57.220 257.796,64.600 262.262,69.000 264.917 C 73.400 267.572,80.690 271.983,85.200 274.719 C 91.315 278.429,108.602 288.881,112.903 291.468 C 113.069 291.568,113.159 278.117,113.103 261.575 L 113.000 231.500 106.600 227.921 C 103.080 225.952,99.091 223.730,97.735 222.983 C 93.126 220.443,78.605 212.320,77.400 211.608 C 76.740 211.218,75.345 210.427,74.300 209.849 C 73.255 209.272,71.545 208.323,70.500 207.741 C 69.455 207.158,66.170 205.336,63.200 203.691 C 60.230 202.046,57.629 200.543,57.420 200.350 C 56.497 199.500,55.130 200.500,45.724 208.900 " stroke="none" fill="#142c94" fill-rule="evenodd"></path><path id="path1" d="M111.600 108.137 C 111.050 108.430,106.730 111.009,102.000 113.867 C 97.270 116.726,84.670 124.282,74.000 130.658 C 63.330 137.034,46.365 147.178,36.300 153.201 L 18.000 164.151 18.000 198.954 L 18.000 233.757 19.492 232.378 C 20.312 231.620,21.077 230.908,21.192 230.796 C 21.471 230.522,33.496 219.813,45.581 209.076 C 50.981 204.277,55.850 199.943,56.400 199.445 C 57.326 198.605,60.238 196.868,66.200 193.599 C 68.414 192.385,77.903 187.050,88.600 181.005 C 91.020 179.637,93.900 178.023,95.000 177.416 C 99.680 174.838,111.473 168.236,112.300 167.731 L 113.200 167.182 113.200 137.391 C 113.200 121.006,113.065 107.601,112.900 107.602 C 112.735 107.604,112.150 107.845,111.600 108.137 M378.000 167.866 C 374.408 171.143,372.339 173.051,359.800 184.656 C 356.940 187.303,352.350 191.523,349.600 194.034 C 346.850 196.545,344.540 198.735,344.467 198.900 C 344.393 199.065,344.152 199.200,343.931 199.200 C 343.709 199.200,343.229 199.541,342.864 199.957 C 342.499 200.373,341.210 201.247,340.000 201.899 C 336.958 203.537,334.213 205.069,331.479 206.654 C 330.202 207.394,329.098 208.000,329.025 208.000 C 328.952 208.000,325.251 210.070,320.800 212.600 C 316.349 215.130,312.648 217.200,312.575 217.200 C 312.502 217.200,311.398 217.806,310.121 218.546 C 306.784 220.480,304.361 221.833,299.600 224.420 C 297.290 225.675,293.420 227.852,291.000 229.259 L 286.600 231.817 286.497 261.508 C 286.428 281.529,286.528 291.200,286.804 291.200 C 287.029 291.200,289.775 289.641,292.906 287.736 C 296.038 285.831,304.990 280.410,312.800 275.689 C 320.610 270.968,330.870 264.761,335.600 261.895 C 340.330 259.030,349.330 253.584,355.600 249.791 C 361.870 245.999,368.942 241.705,371.316 240.248 C 373.690 238.792,375.709 237.600,375.803 237.600 C 376.243 237.600,381.674 233.872,381.830 233.463 C 381.927 233.209,381.960 217.565,381.903 198.700 L 381.800 164.399 378.000 167.866 " stroke="none" fill="#15bcfb" fill-rule="evenodd"></path><path id="path2" d="M0.000 200.000 L 0.000 400.000 200.000 400.000 L 400.000 400.000 400.000 200.000 L 400.000 0.000 200.000 0.000 L 0.000 0.000 0.000 200.000 M266.752 50.542 C 267.090 50.949,266.998 51.903,266.383 54.374 C 265.932 56.183,265.383 58.504,265.162 59.532 C 264.942 60.559,264.598 62.030,264.399 62.800 C 263.850 64.921,263.197 67.617,262.800 69.400 C 262.604 70.280,262.272 71.720,262.062 72.600 C 261.852 73.480,261.464 75.190,261.200 76.400 C 260.712 78.634,260.394 79.972,259.586 83.200 C 259.338 84.190,259.040 85.676,258.925 86.503 C 258.810 87.329,258.555 88.105,258.358 88.226 C 258.161 88.348,258.000 88.919,258.000 89.495 C 258.000 90.072,257.832 91.096,257.627 91.772 C 257.199 93.182,256.631 95.409,256.039 98.000 C 255.579 100.016,253.665 108.643,253.200 110.800 C 253.034 111.570,251.881 116.610,250.637 122.000 C 247.363 136.188,247.207 136.859,246.811 138.400 C 246.613 139.170,246.269 140.610,246.047 141.600 C 245.825 142.590,245.284 144.930,244.846 146.800 C 244.407 148.670,243.836 151.190,243.579 152.400 C 243.321 153.610,242.950 155.013,242.755 155.519 C 242.560 156.024,242.400 156.959,242.400 157.595 C 242.400 158.232,242.220 158.864,242.000 159.000 C 241.780 159.136,241.600 159.856,241.600 160.600 C 241.600 161.344,241.439 162.052,241.242 162.174 C 241.045 162.295,240.786 163.071,240.665 163.897 C 240.249 166.744,239.945 168.202,239.600 169.000 C 239.410 169.440,239.168 170.340,239.063 171.000 C 238.817 172.545,237.454 178.694,236.226 183.800 C 235.696 186.000,234.794 189.870,234.221 192.400 C 233.648 194.930,233.009 197.630,232.802 198.400 C 232.595 199.170,232.080 201.330,231.657 203.200 C 231.234 205.070,230.503 208.310,230.031 210.400 C 228.760 216.032,228.387 217.651,228.000 219.200 C 227.808 219.970,227.459 221.455,227.225 222.500 C 226.991 223.545,226.609 225.255,226.375 226.300 C 225.887 228.478,225.443 230.315,224.852 232.600 C 224.624 233.480,224.331 234.740,224.201 235.400 C 224.071 236.060,223.800 237.230,223.600 238.000 C 223.400 238.770,223.129 239.940,222.999 240.600 C 222.869 241.260,222.602 242.430,222.406 243.200 C 222.076 244.499,221.809 245.661,220.822 250.100 C 220.614 251.035,220.084 253.330,219.644 255.200 C 219.203 257.070,218.573 259.770,218.243 261.200 C 217.032 266.442,215.168 274.238,214.800 275.600 C 214.592 276.370,213.945 279.160,213.362 281.800 C 212.779 284.440,212.129 287.320,211.918 288.200 C 211.707 289.080,211.440 290.476,211.325 291.303 C 211.210 292.129,210.955 292.905,210.758 293.026 C 210.561 293.148,210.400 293.719,210.400 294.295 C 210.400 294.872,210.232 295.896,210.027 296.572 C 209.390 298.671,208.285 303.175,207.617 306.400 C 207.366 307.610,206.977 309.410,206.752 310.400 C 206.528 311.390,206.165 313.010,205.947 314.000 C 205.728 314.990,205.388 316.430,205.190 317.200 C 204.992 317.970,204.362 320.670,203.791 323.200 C 199.629 341.631,198.001 348.151,197.477 348.484 C 197.215 348.651,183.294 348.791,166.543 348.794 C 132.804 348.801,135.130 348.994,135.966 346.248 C 136.175 345.562,136.523 344.280,136.740 343.400 C 136.957 342.520,137.312 341.080,137.531 340.200 C 137.749 339.320,138.112 337.700,138.338 336.600 C 139.313 331.855,139.712 330.144,140.045 329.281 C 140.240 328.776,140.400 327.841,140.400 327.205 C 140.400 326.568,140.580 325.936,140.800 325.800 C 141.020 325.664,141.200 324.944,141.200 324.200 C 141.200 323.456,141.380 322.736,141.600 322.600 C 141.820 322.464,142.000 321.832,142.000 321.195 C 142.000 320.559,142.161 319.624,142.358 319.119 C 142.666 318.328,143.473 314.873,144.814 308.600 C 145.002 307.720,145.516 305.470,145.956 303.600 C 146.396 301.730,147.597 296.510,148.626 292.000 C 149.654 287.490,151.108 281.190,151.856 278.000 C 152.605 274.810,153.402 271.390,153.628 270.400 C 153.854 269.410,154.193 267.970,154.380 267.200 C 154.731 265.759,155.165 263.832,156.001 260.000 C 156.265 258.790,156.657 257.080,156.873 256.200 C 157.089 255.320,157.360 253.924,157.475 253.097 C 157.590 252.271,157.845 251.495,158.042 251.374 C 158.239 251.252,158.400 250.544,158.400 249.800 C 158.400 249.056,158.580 248.336,158.800 248.200 C 159.020 248.064,159.200 247.344,159.200 246.600 C 159.200 245.856,159.380 245.136,159.600 245.000 C 159.820 244.864,160.000 244.232,160.000 243.595 C 160.000 242.959,160.160 242.024,160.355 241.519 C 160.550 241.013,160.919 239.610,161.175 238.400 C 161.430 237.190,161.810 235.435,162.020 234.500 C 162.229 233.565,162.570 232.035,162.778 231.100 C 162.986 230.165,163.536 227.780,164.000 225.800 C 164.464 223.820,165.009 221.480,165.210 220.600 C 166.400 215.410,167.676 210.014,168.000 208.800 C 168.206 208.030,168.657 206.050,169.004 204.400 C 169.351 202.750,169.904 200.230,170.235 198.800 C 170.565 197.370,171.019 195.390,171.243 194.400 C 171.467 193.410,171.808 191.970,172.000 191.200 C 172.362 189.749,173.001 186.967,173.606 184.200 C 174.477 180.222,175.660 175.293,176.013 174.172 C 176.226 173.496,176.400 172.472,176.400 171.895 C 176.400 171.319,176.580 170.736,176.800 170.600 C 177.020 170.464,177.200 169.832,177.200 169.195 C 177.200 168.559,177.360 167.624,177.555 167.119 C 177.750 166.613,178.119 165.210,178.375 164.000 C 178.630 162.790,179.023 160.990,179.248 160.000 C 179.472 159.010,179.835 157.390,180.053 156.400 C 180.432 154.683,180.728 153.462,181.580 150.100 C 181.789 149.275,182.427 146.530,182.998 144.000 C 183.569 141.470,184.398 137.870,184.840 136.000 C 185.655 132.551,186.137 130.446,186.853 127.200 C 187.072 126.210,187.408 124.770,187.600 124.000 C 187.792 123.230,188.152 121.700,188.400 120.600 C 188.845 118.625,189.186 117.224,190.033 113.900 C 190.881 110.570,191.164 109.387,191.350 108.400 C 191.453 107.850,191.930 105.690,192.409 103.600 C 193.862 97.263,193.908 97.061,194.314 95.200 C 194.530 94.210,195.289 90.880,196.001 87.800 C 196.713 84.720,197.431 81.570,197.596 80.800 C 197.761 80.030,198.754 75.800,199.802 71.400 C 200.851 67.000,201.842 62.770,202.005 62.000 C 203.266 56.049,204.555 50.918,204.893 50.500 C 205.515 49.732,266.114 49.773,266.752 50.542 M288.862 107.652 C 289.446 108.064,290.121 108.400,290.362 108.400 C 290.603 108.400,290.800 108.559,290.800 108.753 C 290.800 108.948,291.115 109.210,291.500 109.336 C 291.885 109.462,292.920 110.003,293.800 110.539 C 305.789 117.838,309.486 120.058,312.300 121.647 C 313.125 122.113,314.278 122.833,314.862 123.247 C 315.446 123.661,316.043 124.000,316.190 124.000 C 316.336 124.000,317.241 124.540,318.200 125.200 C 319.159 125.860,320.049 126.400,320.178 126.400 C 320.307 126.400,321.355 127.010,322.506 127.755 C 324.271 128.897,332.120 133.600,338.181 137.147 C 339.072 137.668,340.278 138.433,340.862 138.847 C 341.446 139.261,342.043 139.600,342.190 139.600 C 342.336 139.600,343.241 140.140,344.200 140.800 C 345.159 141.460,346.064 142.000,346.210 142.000 C 346.357 142.000,346.954 142.339,347.538 142.753 C 348.122 143.167,349.230 143.863,350.000 144.299 C 352.600 145.771,360.181 150.251,363.000 151.981 C 364.540 152.926,366.430 154.058,367.200 154.497 C 367.970 154.935,369.078 155.633,369.662 156.047 C 370.246 156.461,370.848 156.800,371.000 156.800 C 371.152 156.800,371.754 157.139,372.338 157.553 C 372.922 157.967,374.030 158.666,374.800 159.107 C 380.046 162.105,382.333 163.699,382.550 164.507 C 382.856 165.649,382.866 232.314,382.560 233.454 C 382.359 234.203,378.828 236.539,371.000 241.101 C 370.340 241.485,369.710 241.890,369.600 242.000 C 369.490 242.110,368.950 242.460,368.400 242.778 C 367.850 243.095,362.810 246.131,357.200 249.523 C 351.590 252.916,346.460 256.009,345.800 256.397 C 345.140 256.785,342.170 258.589,339.200 260.405 C 336.230 262.221,330.740 265.552,327.000 267.808 C 323.260 270.064,317.795 273.371,314.856 275.155 C 311.916 276.940,309.424 278.400,309.317 278.400 C 309.211 278.400,308.646 278.738,308.062 279.151 C 307.077 279.847,295.715 286.820,293.000 288.395 C 292.340 288.778,290.690 289.745,289.333 290.545 C 286.562 292.179,286.188 292.267,285.843 291.367 C 285.709 291.019,285.600 277.518,285.600 261.363 C 285.600 227.893,285.130 231.776,289.469 229.398 C 290.751 228.695,292.655 227.643,293.700 227.060 C 294.745 226.477,296.365 225.575,297.300 225.057 C 298.235 224.538,299.630 223.756,300.400 223.320 C 301.170 222.883,305.040 220.719,309.000 218.511 C 312.960 216.302,318.329 213.304,320.931 211.848 C 323.533 210.391,325.755 209.200,325.869 209.200 C 325.983 209.200,326.554 208.867,327.138 208.461 C 327.722 208.055,329.280 207.137,330.600 206.421 C 331.920 205.706,335.126 203.924,337.725 202.462 L 342.449 199.804 341.325 198.904 C 340.706 198.409,340.079 198.003,339.932 198.002 C 339.784 198.001,338.105 197.100,336.200 196.000 C 334.295 194.900,332.571 194.000,332.368 194.000 C 332.166 194.000,331.999 193.865,331.997 193.700 C 331.995 193.535,331.590 193.201,331.097 192.959 C 329.979 192.408,326.440 190.484,323.800 188.991 C 320.702 187.239,308.027 180.147,303.900 177.857 C 302.965 177.338,301.480 176.502,300.600 176.000 C 299.720 175.498,298.235 174.662,297.300 174.143 C 288.917 169.491,286.208 167.898,285.906 167.443 C 285.537 166.886,285.502 107.031,285.871 106.662 C 286.235 106.298,287.563 106.738,288.862 107.652 M113.742 107.394 C 114.248 108.710,114.013 166.168,113.498 167.148 C 113.224 167.669,112.280 168.480,111.400 168.951 C 109.506 169.963,103.513 173.307,100.200 175.200 C 97.364 176.821,96.048 177.558,88.800 181.589 C 84.730 183.852,80.230 186.376,78.800 187.197 C 76.319 188.622,73.122 190.421,71.398 191.362 C 63.990 195.406,57.257 199.413,57.496 199.635 C 57.663 199.790,59.510 200.858,61.600 202.008 C 65.586 204.200,67.642 205.344,70.045 206.706 C 70.840 207.156,71.920 207.767,72.445 208.062 C 72.970 208.358,73.490 208.690,73.600 208.800 C 73.710 208.910,74.790 209.517,76.000 210.150 C 78.979 211.706,82.345 213.546,83.800 214.413 C 84.460 214.806,86.620 216.013,88.600 217.096 C 90.580 218.179,93.055 219.545,94.100 220.132 C 95.145 220.720,96.765 221.625,97.700 222.143 C 98.635 222.662,100.120 223.498,101.000 224.000 C 101.880 224.502,103.365 225.338,104.300 225.857 C 105.235 226.375,106.765 227.225,107.700 227.743 C 111.918 230.084,112.642 230.519,113.300 231.103 C 114.333 232.020,114.391 291.875,113.360 292.271 C 113.007 292.406,112.602 292.355,112.460 292.158 C 112.222 291.830,111.615 291.449,109.400 290.238 C 108.960 289.997,108.510 289.710,108.400 289.600 C 108.290 289.490,107.750 289.140,107.200 288.821 C 106.650 288.503,103.500 286.602,100.200 284.597 C 96.900 282.592,93.750 280.692,93.200 280.375 C 92.650 280.059,92.110 279.710,92.000 279.600 C 91.890 279.490,91.370 279.158,90.845 278.862 C 90.320 278.567,89.241 277.960,88.447 277.514 C 87.653 277.068,86.251 276.185,85.330 275.552 C 84.409 274.918,83.573 274.400,83.471 274.400 C 83.231 274.400,66.924 264.537,65.538 263.554 C 64.954 263.139,64.357 262.800,64.210 262.800 C 64.064 262.800,63.159 262.260,62.200 261.600 C 61.241 260.940,60.297 260.400,60.103 260.400 C 59.909 260.400,59.393 260.085,58.955 259.700 C 58.208 259.043,57.735 258.741,55.500 257.500 C 55.005 257.225,54.510 256.910,54.400 256.800 C 54.290 256.690,53.770 256.358,53.245 256.062 C 50.638 254.594,49.364 253.843,44.000 250.607 C 40.810 248.683,37.571 246.747,36.802 246.306 C 36.033 245.865,34.651 244.985,33.730 244.352 C 32.809 243.718,31.863 243.200,31.628 243.200 C 31.393 243.200,31.200 243.041,31.200 242.847 C 31.200 242.652,30.885 242.393,30.500 242.271 C 29.564 241.975,27.434 240.676,27.267 240.300 C 27.193 240.135,26.956 240.000,26.739 240.000 C 26.522 240.000,25.559 239.460,24.600 238.800 C 23.641 238.140,22.750 237.600,22.620 237.600 C 22.491 237.600,21.217 236.850,19.790 235.934 L 17.196 234.268 17.298 199.041 L 17.400 163.814 20.200 162.107 C 21.740 161.169,23.450 160.158,24.000 159.862 C 24.550 159.566,26.620 158.331,28.600 157.118 C 32.643 154.641,50.681 143.885,52.726 142.732 C 53.455 142.321,54.506 141.687,55.062 141.323 C 55.617 140.959,56.568 140.377,57.174 140.030 C 59.872 138.487,74.404 129.756,76.294 128.544 C 77.445 127.805,78.451 127.200,78.528 127.200 C 78.605 127.200,86.303 122.612,95.634 117.005 C 113.034 106.550,113.353 106.380,113.742 107.394 " stroke="none" fill="#fbfbfb" fill-rule="evenodd"></path><path id="path3" d="M205.047 50.723 C 204.674 51.327,202.317 62.050,202.514 62.247 C 202.622 62.355,203.018 61.039,203.395 59.322 C 203.771 57.605,204.381 55.030,204.750 53.600 L 205.421 51.000 235.938 50.897 C 264.885 50.800,266.445 50.831,266.243 51.497 C 265.616 53.574,263.958 61.691,264.126 61.860 C 264.235 61.968,264.448 61.459,264.600 60.729 C 264.752 59.998,265.316 57.548,265.853 55.285 C 266.389 53.021,266.721 50.996,266.591 50.785 C 266.298 50.311,205.340 50.250,205.047 50.723 M263.400 63.600 C 263.248 64.291,263.214 64.947,263.324 65.057 C 263.434 65.167,263.648 64.691,263.800 64.000 C 263.952 63.309,263.986 62.653,263.876 62.543 C 263.766 62.433,263.552 62.909,263.400 63.600 M202.032 62.967 C 202.014 63.169,200.716 68.839,199.148 75.567 C 197.579 82.295,196.162 88.430,195.998 89.200 C 195.834 89.970,195.228 92.649,194.650 95.154 C 193.618 99.631,193.437 100.697,193.766 100.367 C 193.857 100.275,194.844 96.240,195.960 91.400 C 197.076 86.560,198.985 78.290,200.201 73.021 C 201.418 67.753,202.335 63.253,202.239 63.021 C 202.142 62.790,202.049 62.765,202.032 62.967 M262.649 66.615 C 262.512 66.973,262.416 67.656,262.436 68.133 C 262.462 68.747,262.585 68.608,262.859 67.656 C 263.257 66.272,263.094 65.458,262.649 66.615 M261.822 70.400 C 261.657 71.170,261.000 74.050,260.360 76.800 C 259.721 79.550,258.844 83.330,258.411 85.200 C 257.978 87.070,257.159 90.555,256.591 92.945 C 256.022 95.335,255.648 97.381,255.759 97.492 C 255.870 97.604,256.072 97.178,256.207 96.547 C 256.343 95.916,256.793 93.960,257.209 92.200 C 257.624 90.440,258.419 87.020,258.974 84.600 C 259.529 82.180,260.533 77.876,261.204 75.036 C 261.875 72.196,262.356 69.676,262.272 69.436 C 262.188 69.196,261.986 69.630,261.822 70.400 M255.022 99.422 C 254.872 100.225,254.838 100.972,254.948 101.082 C 255.058 101.192,255.272 100.625,255.422 99.822 C 255.573 99.019,255.606 98.273,255.496 98.163 C 255.386 98.053,255.173 98.619,255.022 99.422 M193.022 102.222 C 192.872 103.025,192.828 103.762,192.926 103.860 C 193.024 103.957,193.227 103.381,193.378 102.578 C 193.528 101.775,193.572 101.038,193.474 100.940 C 193.376 100.843,193.173 101.419,193.022 102.222 M252.636 109.904 C 251.588 114.467,250.381 119.730,249.953 121.600 C 249.525 123.470,249.007 125.630,248.801 126.400 C 248.107 129.004,246.000 138.371,246.000 138.854 C 246.000 139.965,246.410 138.751,247.170 135.387 C 247.616 133.414,248.892 127.930,250.005 123.200 C 251.118 118.470,252.181 113.880,252.366 113.000 C 252.552 112.120,253.191 109.271,253.787 106.669 C 254.383 104.067,254.797 101.864,254.706 101.773 C 254.615 101.682,253.684 105.341,252.636 109.904 M192.256 105.284 C 192.121 105.788,192.027 106.560,192.046 107.000 C 192.065 107.440,192.245 107.098,192.446 106.240 C 192.836 104.578,192.670 103.740,192.256 105.284 M93.982 118.219 C 83.542 124.470,74.648 129.793,74.217 130.047 C 73.786 130.302,62.712 136.936,49.607 144.789 C 36.502 152.642,24.031 160.097,21.892 161.356 C 19.754 162.614,17.821 163.988,17.596 164.408 C 17.324 164.916,17.223 176.702,17.293 199.569 C 17.414 238.364,17.033 234.037,20.500 236.001 C 22.708 237.252,22.326 236.669,20.000 235.238 L 18.000 234.007 18.000 199.079 L 18.000 164.151 36.300 153.201 C 46.365 147.179,62.700 137.410,72.600 131.491 C 102.936 113.355,109.361 109.496,110.400 108.787 C 110.950 108.412,111.805 107.979,112.300 107.826 L 113.200 107.546 113.200 137.364 L 113.200 167.182 112.300 167.731 C 111.473 168.236,99.680 174.838,95.000 177.416 C 93.900 178.023,91.020 179.639,88.600 181.009 C 86.180 182.378,81.725 184.884,78.700 186.577 C 75.675 188.270,73.200 189.749,73.200 189.864 C 73.200 190.094,74.374 189.458,86.400 182.710 C 104.474 172.568,107.495 170.877,109.800 169.613 C 111.120 168.890,112.515 168.023,112.900 167.687 C 113.653 167.030,114.028 107.511,113.282 107.051 C 113.107 106.943,104.422 111.968,93.982 118.219 M286.000 136.951 C 286.000 165.198,286.044 167.135,286.700 167.632 C 287.296 168.082,287.325 168.078,286.900 167.601 C 286.397 167.037,286.109 107.200,286.609 107.200 C 286.724 107.200,289.559 108.846,292.909 110.859 C 296.259 112.871,299.180 114.596,299.400 114.693 C 300.184 115.038,297.782 113.227,296.800 112.732 C 296.250 112.455,295.335 111.917,294.767 111.535 C 292.835 110.237,286.738 106.800,286.368 106.800 C 286.147 106.800,286.000 118.838,286.000 136.951 M191.440 108.853 C 191.330 109.374,190.948 111.032,190.592 112.538 C 190.235 114.044,190.037 115.371,190.152 115.486 C 190.267 115.600,190.451 115.268,190.560 114.747 C 190.670 114.226,191.052 112.568,191.408 111.062 C 191.765 109.556,191.963 108.229,191.848 108.114 C 191.733 108.000,191.549 108.332,191.440 108.853 M300.200 115.096 C 300.810 115.727,310.102 121.231,310.271 121.062 C 310.352 120.981,308.210 119.602,305.510 117.999 C 299.843 114.633,299.651 114.528,300.200 115.096 M189.422 117.422 C 189.272 118.225,189.238 118.972,189.348 119.082 C 189.458 119.192,189.672 118.625,189.822 117.822 C 189.973 117.019,190.006 116.273,189.896 116.163 C 189.786 116.053,189.573 116.619,189.422 117.422 M187.035 127.835 C 185.987 132.360,185.218 136.151,185.327 136.260 C 185.435 136.368,185.648 135.859,185.800 135.129 C 185.953 134.398,186.580 131.640,187.195 129.000 C 187.810 126.360,188.533 123.245,188.802 122.078 C 189.070 120.912,189.212 119.878,189.116 119.782 C 189.020 119.686,188.084 123.310,187.035 127.835 M310.800 121.329 C 310.800 121.435,312.555 122.591,314.700 123.898 C 319.604 126.885,347.316 143.424,349.200 144.488 L 350.600 145.279 349.600 144.458 C 349.050 144.006,348.152 143.403,347.605 143.118 C 347.057 142.833,343.817 140.909,340.405 138.843 C 336.992 136.777,333.120 134.454,331.800 133.680 C 329.818 132.518,316.972 124.848,312.100 121.917 C 311.385 121.487,310.800 121.222,310.800 121.329 M184.622 138.222 C 184.472 139.025,184.438 139.772,184.548 139.882 C 184.658 139.992,184.872 139.425,185.022 138.622 C 185.173 137.819,185.206 137.073,185.096 136.963 C 184.986 136.853,184.773 137.419,184.622 138.222 M245.378 140.978 C 245.227 141.781,245.194 142.527,245.304 142.637 C 245.414 142.747,245.627 142.181,245.778 141.378 C 245.928 140.575,245.962 139.828,245.852 139.718 C 245.742 139.608,245.528 140.175,245.378 140.978 M183.594 142.472 C 183.328 143.643,182.973 145.230,182.805 146.000 C 182.638 146.770,182.028 149.449,181.450 151.954 C 180.419 156.425,180.237 157.499,180.565 157.167 C 180.871 156.857,184.464 140.731,184.271 140.537 C 184.165 140.431,183.860 141.302,183.594 142.472 M244.600 144.471 C 244.449 145.202,243.714 148.410,242.967 151.600 C 242.221 154.790,241.327 158.660,240.982 160.200 C 240.637 161.740,239.901 164.861,239.347 167.136 C 238.793 169.411,238.434 171.368,238.550 171.484 C 238.666 171.600,238.872 171.178,239.007 170.547 C 239.143 169.916,239.592 167.960,240.005 166.200 C 243.755 150.232,245.242 143.509,245.063 143.329 C 244.960 143.227,244.752 143.741,244.600 144.471 M350.800 145.335 C 350.800 145.447,354.805 147.921,359.700 150.835 C 364.595 153.748,370.850 157.481,373.600 159.130 C 379.476 162.654,379.200 162.499,379.200 162.255 C 379.200 162.092,352.024 145.655,351.113 145.267 C 350.941 145.193,350.800 145.224,350.800 145.335 M180.000 157.738 C 180.000 157.887,179.618 159.672,179.152 161.704 C 178.686 163.737,178.168 166.030,178.001 166.800 C 177.835 167.570,177.210 170.329,176.613 172.931 C 176.017 175.533,175.601 177.734,175.688 177.822 C 175.776 177.910,176.892 173.475,178.168 167.968 C 179.444 162.460,180.378 157.844,180.244 157.710 C 180.110 157.576,180.000 157.589,180.000 157.738 M380.711 163.441 L 382.022 164.600 381.911 199.195 L 381.800 233.789 379.309 235.419 C 377.939 236.315,376.679 237.197,376.509 237.379 C 376.022 237.898,378.000 236.803,380.302 235.277 L 382.404 233.884 382.302 198.864 L 382.200 163.845 380.800 163.064 L 379.400 162.282 380.711 163.441 M288.400 168.764 C 288.950 169.214,289.521 169.586,289.668 169.591 C 289.816 169.596,291.436 170.466,293.268 171.524 C 295.101 172.582,297.860 174.138,299.400 174.982 C 300.940 175.826,304.810 177.994,308.000 179.800 C 311.190 181.605,314.430 183.390,315.200 183.765 L 316.600 184.448 315.600 183.633 C 315.050 183.185,314.473 182.814,314.318 182.809 C 314.162 182.804,313.172 182.293,312.118 181.673 C 311.063 181.053,308.940 179.856,307.400 179.012 C 305.860 178.168,301.180 175.552,297.000 173.198 C 292.820 170.844,288.950 168.700,288.400 168.432 L 287.400 167.946 288.400 168.764 M237.822 173.422 C 237.672 174.225,237.638 174.972,237.748 175.082 C 237.858 175.192,238.072 174.625,238.222 173.822 C 238.373 173.019,238.406 172.273,238.296 172.163 C 238.186 172.053,237.973 172.619,237.822 173.422 M237.022 177.022 C 236.872 177.825,236.828 178.562,236.926 178.660 C 237.024 178.757,237.227 178.181,237.378 177.378 C 237.528 176.575,237.572 175.838,237.474 175.740 C 237.376 175.643,237.173 176.219,237.022 177.022 M175.200 178.538 C 175.200 178.687,174.818 180.472,174.352 182.504 C 173.886 184.537,173.368 186.830,173.201 187.600 C 173.035 188.370,171.966 193.025,170.827 197.945 C 169.688 202.864,168.856 206.989,168.978 207.111 C 169.100 207.233,169.202 207.168,169.205 206.967 C 169.208 206.765,170.108 202.730,171.206 198.000 C 172.304 193.270,173.756 187.000,174.434 184.066 C 175.111 181.132,175.560 178.627,175.432 178.499 C 175.305 178.371,175.200 178.389,175.200 178.538 M236.400 179.379 C 236.400 179.551,235.754 182.474,234.963 185.876 C 234.173 189.277,233.608 192.141,233.707 192.240 C 233.806 192.339,234.172 191.201,234.520 189.710 C 234.868 188.220,235.546 185.328,236.027 183.284 C 236.508 181.240,236.789 179.455,236.651 179.317 C 236.513 179.180,236.400 179.207,236.400 179.379 M316.800 184.524 C 316.800 184.701,321.173 187.241,327.025 190.465 C 334.358 194.504,342.800 199.404,342.800 199.622 C 342.800 199.760,341.888 200.369,340.773 200.976 C 339.658 201.583,338.826 202.159,338.924 202.257 C 339.257 202.591,343.000 200.145,343.000 199.594 C 343.000 199.028,342.238 198.570,326.628 189.771 C 316.848 184.257,316.800 184.232,316.800 184.524 M70.800 191.039 C 69.810 191.605,68.010 192.609,66.800 193.272 C 56.635 198.834,55.807 199.417,57.034 200.153 C 57.949 200.701,66.977 205.793,70.000 207.466 C 71.210 208.136,73.100 209.182,74.200 209.791 C 75.300 210.400,76.740 211.218,77.400 211.608 C 78.479 212.245,91.313 219.426,97.400 222.799 C 106.924 228.075,112.644 231.306,112.903 231.554 C 113.069 231.714,113.159 245.278,113.103 261.696 L 113.000 291.547 106.400 287.543 C 99.108 283.118,97.989 282.483,98.600 283.117 C 98.968 283.499,104.159 286.762,107.000 288.398 C 107.660 288.778,109.279 289.727,110.598 290.508 C 111.916 291.288,113.131 291.843,113.298 291.740 C 114.033 291.285,113.642 231.761,112.900 231.116 C 112.515 230.782,110.760 229.739,109.000 228.798 C 107.240 227.858,105.620 226.959,105.400 226.802 C 105.180 226.645,103.830 225.880,102.400 225.103 C 100.970 224.326,96.020 221.577,91.400 218.994 C 86.780 216.410,81.380 213.398,79.400 212.299 C 74.892 209.798,73.028 208.756,71.000 207.604 C 70.120 207.104,66.655 205.157,63.300 203.277 C 59.945 201.398,57.200 199.715,57.200 199.539 C 57.200 199.111,57.895 198.686,65.600 194.405 C 71.485 191.134,73.353 189.989,72.780 190.005 C 72.681 190.007,71.790 190.473,70.800 191.039 M233.022 194.222 C 232.872 195.025,232.838 195.772,232.948 195.882 C 233.058 195.992,233.272 195.425,233.422 194.622 C 233.573 193.819,233.606 193.073,233.496 192.963 C 233.386 192.853,233.173 193.419,233.022 194.222 M232.178 197.778 C 232.027 198.581,231.994 199.327,232.104 199.437 C 232.214 199.547,232.427 198.981,232.578 198.178 C 232.728 197.375,232.762 196.628,232.652 196.518 C 232.542 196.408,232.328 196.975,232.178 197.778 M231.449 200.615 C 231.312 200.973,231.216 201.656,231.236 202.133 C 231.262 202.747,231.385 202.608,231.659 201.656 C 232.057 200.272,231.894 199.458,231.449 200.615 M334.400 204.532 C 332.310 205.692,327.450 208.410,323.600 210.570 C 314.402 215.732,304.069 221.508,294.200 227.003 L 286.200 231.457 286.097 261.529 C 286.005 288.646,286.057 291.600,286.624 291.600 C 287.214 291.600,290.004 290.029,296.600 285.986 C 301.663 282.882,319.752 271.913,322.100 270.523 C 323.365 269.774,324.400 269.074,324.400 268.967 C 324.400 268.647,320.237 271.129,292.906 287.740 C 289.775 289.643,287.029 291.200,286.804 291.200 C 286.528 291.200,286.428 281.529,286.497 261.508 L 286.600 231.817 291.000 229.259 C 293.420 227.852,297.290 225.675,299.600 224.420 C 304.361 221.833,306.784 220.480,310.121 218.546 C 311.398 217.806,312.502 217.200,312.575 217.200 C 312.648 217.200,316.349 215.130,320.800 212.600 C 325.251 210.070,328.947 208.000,329.015 208.000 C 329.082 208.000,330.695 207.100,332.600 206.000 C 334.505 204.900,336.184 203.996,336.332 203.991 C 336.642 203.981,338.701 202.417,338.400 202.420 C 338.290 202.421,336.490 203.372,334.400 204.532 M230.800 203.382 C 230.800 203.720,228.721 212.792,223.603 234.791 C 221.838 242.376,220.458 248.766,220.536 248.991 C 220.664 249.358,221.089 247.784,221.992 243.600 C 222.158 242.830,223.241 238.150,224.400 233.200 C 225.559 228.250,226.639 223.570,226.801 222.800 C 226.962 222.030,228.034 217.381,229.182 212.468 C 230.331 207.556,231.164 203.431,231.035 203.302 C 230.906 203.172,230.800 203.209,230.800 203.382 M168.449 208.000 C 168.416 208.330,168.289 209.050,168.167 209.600 C 167.975 210.464,168.007 210.503,168.399 209.888 C 168.648 209.497,168.775 208.777,168.681 208.288 C 168.586 207.800,168.482 207.670,168.449 208.000 M167.422 212.222 C 167.272 213.025,167.238 213.772,167.348 213.882 C 167.458 213.992,167.672 213.425,167.822 212.622 C 167.973 211.819,168.006 211.073,167.896 210.963 C 167.786 210.853,167.573 211.419,167.422 212.222 M166.600 216.000 C 166.448 216.691,166.414 217.347,166.524 217.457 C 166.634 217.567,166.848 217.091,167.000 216.400 C 167.152 215.709,167.186 215.053,167.076 214.943 C 166.966 214.833,166.752 215.309,166.600 216.000 M165.594 220.072 C 165.328 221.243,164.973 222.830,164.804 223.600 C 164.636 224.370,164.010 227.129,163.413 229.731 C 162.817 232.333,162.403 234.536,162.494 234.627 C 162.585 234.718,163.516 231.090,164.565 226.565 C 165.613 222.040,166.382 218.249,166.274 218.141 C 166.166 218.033,165.860 218.902,165.594 220.072 M161.778 236.578 C 161.627 237.381,161.594 238.127,161.704 238.237 C 161.814 238.347,162.027 237.781,162.178 236.978 C 162.328 236.175,162.362 235.428,162.252 235.318 C 162.142 235.208,161.928 235.775,161.778 236.578 M23.000 237.396 C 23.894 238.139,26.428 239.509,25.800 238.910 C 25.580 238.700,24.680 238.124,23.800 237.630 C 22.920 237.135,22.560 237.030,23.000 237.396 M371.200 240.278 C 368.890 241.718,361.870 245.998,355.600 249.790 C 349.330 253.582,339.970 259.242,334.800 262.369 C 329.630 265.497,325.220 268.249,325.000 268.486 C 324.377 269.157,326.308 268.027,340.200 259.588 C 351.087 252.974,367.038 243.321,371.700 240.525 C 374.065 239.106,376.000 237.868,376.000 237.773 C 376.000 237.370,375.178 237.799,371.200 240.278 M160.646 241.690 C 160.279 243.290,159.807 245.230,159.598 246.000 C 159.389 246.770,158.571 250.280,157.781 253.800 C 156.468 259.652,155.709 262.937,152.976 274.600 C 149.938 287.561,146.000 304.877,146.000 305.272 C 146.000 306.471,146.460 304.932,147.580 299.987 C 148.251 297.024,149.162 293.070,149.605 291.200 C 150.048 289.330,150.564 287.080,150.753 286.200 C 150.941 285.320,152.043 280.550,153.201 275.600 C 154.359 270.650,155.438 265.970,155.600 265.200 C 155.761 264.430,156.838 259.750,157.992 254.800 C 161.338 240.458,161.635 239.102,161.470 238.936 C 161.383 238.850,161.013 240.089,160.646 241.690 M27.000 239.787 C 27.440 240.156,28.790 241.050,30.000 241.773 C 31.210 242.496,36.880 245.926,42.600 249.394 C 48.320 252.862,53.540 256.014,54.200 256.399 C 54.860 256.783,57.740 258.529,60.600 260.279 C 63.460 262.029,68.050 264.819,70.800 266.478 C 73.550 268.138,79.561 271.776,84.158 274.564 C 93.067 279.968,94.449 280.759,93.800 280.079 C 93.427 279.689,89.263 277.144,69.000 264.917 C 64.600 262.262,57.220 257.794,52.600 254.989 C 44.983 250.364,29.683 241.155,27.200 239.701 C 26.242 239.140,26.234 239.144,27.000 239.787 M219.411 252.678 C 219.037 254.395,218.207 258.024,217.566 260.743 C 216.925 263.462,216.400 265.877,216.400 266.110 C 216.400 266.991,216.914 265.971,217.202 264.516 C 217.368 263.682,218.170 260.060,218.986 256.468 C 219.801 252.875,220.383 249.850,220.279 249.746 C 220.175 249.642,219.784 250.961,219.411 252.678 M215.822 268.222 C 215.672 269.025,215.638 269.772,215.748 269.882 C 215.858 269.992,216.072 269.425,216.222 268.622 C 216.373 267.819,216.406 267.073,216.296 266.963 C 216.186 266.853,215.973 267.419,215.822 268.222 M215.000 271.600 C 214.848 272.291,214.814 272.947,214.924 273.057 C 215.034 273.167,215.248 272.691,215.400 272.000 C 215.552 271.309,215.586 270.653,215.476 270.543 C 215.366 270.433,215.152 270.909,215.000 271.600 M213.866 276.690 C 213.511 278.180,212.576 282.190,211.789 285.600 C 209.677 294.757,209.264 296.532,208.572 299.438 C 208.226 300.889,208.021 302.154,208.115 302.248 C 208.210 302.343,208.592 301.111,208.965 299.510 C 209.338 297.910,209.897 295.520,210.207 294.200 C 213.303 281.044,214.810 274.277,214.675 274.142 C 214.586 274.053,214.222 275.199,213.866 276.690 M95.000 281.011 C 95.440 281.369,96.340 281.926,97.000 282.250 C 98.122 282.801,98.148 282.797,97.400 282.189 C 96.960 281.831,96.060 281.274,95.400 280.950 C 94.278 280.399,94.252 280.403,95.000 281.011 M207.649 303.200 C 207.616 303.530,207.489 304.250,207.367 304.800 C 207.175 305.664,207.207 305.703,207.599 305.088 C 207.848 304.697,207.975 303.977,207.881 303.488 C 207.786 303.000,207.682 302.870,207.649 303.200 M145.378 307.378 C 145.227 308.181,145.194 308.927,145.304 309.037 C 145.414 309.147,145.627 308.581,145.778 307.778 C 145.928 306.975,145.962 306.228,145.852 306.118 C 145.742 306.008,145.528 306.575,145.378 307.378 M206.600 307.600 C 206.448 308.291,206.414 308.947,206.524 309.057 C 206.634 309.167,206.848 308.691,207.000 308.000 C 207.152 307.309,207.186 306.653,207.076 306.543 C 206.966 306.433,206.752 306.909,206.600 307.600 M144.578 310.978 C 144.427 311.781,144.394 312.527,144.504 312.637 C 144.614 312.747,144.827 312.181,144.978 311.378 C 145.128 310.575,145.162 309.828,145.052 309.718 C 144.942 309.608,144.728 310.175,144.578 310.978 M204.280 317.725 C 203.246 322.179,202.420 326.087,202.444 326.411 C 202.500 327.150,203.112 324.758,204.989 316.468 C 205.803 312.875,206.399 309.866,206.314 309.781 C 206.230 309.696,205.314 313.271,204.280 317.725 M143.849 313.815 C 143.712 314.173,143.616 314.856,143.636 315.333 C 143.662 315.947,143.785 315.808,144.059 314.856 C 144.457 313.472,144.294 312.658,143.849 313.815 M142.997 317.453 C 142.540 319.619,141.608 323.704,139.599 332.345 C 138.915 335.284,138.430 337.763,138.520 337.853 C 138.668 338.001,139.074 336.363,141.659 325.200 C 142.092 323.330,142.719 320.658,143.051 319.262 C 143.384 317.866,143.563 316.629,143.448 316.514 C 143.333 316.400,143.130 316.822,142.997 317.453 M201.063 331.608 C 200.471 334.134,199.383 338.810,198.646 342.000 L 197.306 347.800 166.953 347.800 L 136.600 347.800 136.685 346.400 L 136.771 345.000 136.387 346.200 C 136.176 346.860,136.087 347.625,136.189 347.900 C 136.461 348.632,196.917 348.632,197.501 347.900 C 197.720 347.625,198.279 345.690,198.742 343.600 C 199.206 341.510,200.221 337.108,200.999 333.818 C 201.776 330.528,202.351 327.652,202.275 327.426 C 202.200 327.201,201.654 329.082,201.063 331.608 M138.049 339.000 C 138.016 339.440,137.896 340.250,137.783 340.800 L 137.577 341.800 138.006 340.819 C 138.242 340.279,138.361 339.469,138.272 339.019 C 138.113 338.221,138.107 338.221,138.049 339.000 M137.050 343.250 C 136.717 344.917,137.040 345.240,137.400 343.600 C 137.552 342.909,137.593 342.259,137.491 342.158 C 137.389 342.056,137.191 342.547,137.050 343.250 " stroke="none" fill="#98c1e5" fill-rule="evenodd"></path><path id="path4" d="M204.880 50.480 C 204.616 50.744,204.411 51.239,204.425 51.580 C 204.441 51.959,204.592 51.849,204.813 51.298 L 205.176 50.395 235.888 50.498 L 266.600 50.600 266.524 52.000 C 266.448 53.395,266.449 53.396,266.862 52.287 C 267.752 49.890,269.245 50.000,235.831 50.000 C 212.665 50.000,205.245 50.115,204.880 50.480 M203.822 53.822 C 203.672 54.625,203.628 55.362,203.726 55.460 C 203.824 55.557,204.027 54.981,204.178 54.178 C 204.328 53.375,204.372 52.638,204.274 52.540 C 204.176 52.443,203.973 53.019,203.822 53.822 M265.800 55.200 C 265.648 55.891,265.607 56.541,265.709 56.642 C 265.811 56.744,266.009 56.253,266.150 55.550 C 266.483 53.883,266.160 53.560,265.800 55.200 M264.854 59.467 C 264.825 59.944,264.696 60.664,264.570 61.067 C 264.352 61.761,264.364 61.762,264.796 61.088 C 265.047 60.697,265.175 59.977,265.081 59.488 C 264.909 58.601,264.909 58.601,264.854 59.467 M202.256 60.484 C 202.121 60.988,202.027 61.760,202.046 62.200 C 202.065 62.640,202.245 62.298,202.446 61.440 C 202.836 59.778,202.670 58.940,202.256 60.484 M264.054 62.667 C 264.025 63.144,263.896 63.864,263.770 64.267 C 263.552 64.961,263.564 64.962,263.996 64.288 C 264.247 63.897,264.375 63.177,264.281 62.688 C 264.109 61.801,264.109 61.801,264.054 62.667 M263.254 65.867 C 263.225 66.344,263.096 67.064,262.970 67.467 C 262.752 68.161,262.764 68.162,263.196 67.488 C 263.447 67.097,263.575 66.377,263.481 65.888 C 263.309 65.001,263.309 65.001,263.254 65.867 M200.222 69.422 C 200.072 70.225,200.028 70.962,200.126 71.060 C 200.224 71.157,200.427 70.581,200.578 69.778 C 200.728 68.975,200.772 68.238,200.674 68.140 C 200.576 68.043,200.373 68.619,200.222 69.422 M262.454 69.467 C 262.425 69.944,262.296 70.664,262.170 71.067 C 261.952 71.761,261.964 71.762,262.396 71.088 C 262.647 70.697,262.775 69.977,262.681 69.488 C 262.509 68.601,262.509 68.601,262.454 69.467 M261.450 73.650 C 261.117 75.317,261.440 75.640,261.800 74.000 C 261.952 73.309,261.993 72.659,261.891 72.558 C 261.789 72.456,261.591 72.947,261.450 73.650 M198.622 76.222 C 198.472 77.025,198.428 77.762,198.526 77.860 C 198.624 77.957,198.827 77.381,198.978 76.578 C 199.128 75.775,199.172 75.038,199.074 74.940 C 198.976 74.843,198.773 75.419,198.622 76.222 M260.600 77.200 C 260.448 77.891,260.414 78.547,260.524 78.657 C 260.634 78.767,260.848 78.291,261.000 77.600 C 261.152 76.909,261.186 76.253,261.076 76.143 C 260.966 76.033,260.752 76.509,260.600 77.200 M197.856 79.284 C 197.721 79.788,197.627 80.560,197.646 81.000 C 197.665 81.440,197.845 81.098,198.046 80.240 C 198.436 78.578,198.270 77.740,197.856 79.284 M260.054 79.867 C 260.025 80.344,259.896 81.064,259.770 81.467 C 259.552 82.161,259.564 82.162,259.996 81.488 C 260.247 81.097,260.375 80.377,260.281 79.888 C 260.109 79.001,260.109 79.001,260.054 79.867 M197.000 83.200 C 196.848 83.891,196.807 84.541,196.909 84.642 C 197.011 84.744,197.209 84.253,197.350 83.550 C 197.683 81.883,197.360 81.560,197.000 83.200 M259.246 83.267 C 259.221 83.634,259.096 84.264,258.970 84.667 C 258.752 85.362,258.763 85.363,259.197 84.687 C 259.448 84.296,259.573 83.666,259.473 83.287 C 259.311 82.668,259.288 82.666,259.246 83.267 M196.250 86.450 C 195.917 88.117,196.240 88.440,196.600 86.800 C 196.752 86.109,196.793 85.459,196.691 85.358 C 196.589 85.256,196.391 85.747,196.250 86.450 M258.446 86.667 C 258.421 86.924,258.284 87.464,258.141 87.867 C 257.940 88.436,257.994 88.497,258.379 88.142 C 258.652 87.891,258.789 87.351,258.684 86.942 C 258.579 86.534,258.472 86.410,258.446 86.667 M195.450 90.050 C 195.117 91.717,195.440 92.040,195.800 90.400 C 195.952 89.709,195.993 89.059,195.891 88.958 C 195.789 88.856,195.591 89.347,195.450 90.050 M194.600 93.600 C 194.448 94.291,194.407 94.941,194.509 95.042 C 194.611 95.144,194.809 94.653,194.950 93.950 C 195.283 92.283,194.960 91.960,194.600 93.600 M193.800 97.200 C 193.648 97.891,193.607 98.541,193.709 98.642 C 193.811 98.744,194.009 98.253,194.150 97.550 C 194.483 95.883,194.160 95.560,193.800 97.200 M193.000 100.800 C 192.848 101.491,192.807 102.141,192.909 102.242 C 193.011 102.344,193.209 101.853,193.350 101.150 C 193.683 99.483,193.360 99.160,193.000 100.800 M255.000 101.200 C 254.848 101.891,254.807 102.541,254.909 102.642 C 255.011 102.744,255.209 102.253,255.350 101.550 C 255.683 99.883,255.360 99.560,255.000 101.200 M192.250 104.050 C 191.917 105.717,192.240 106.040,192.600 104.400 C 192.752 103.709,192.793 103.059,192.691 102.958 C 192.589 102.856,192.391 103.347,192.250 104.050 M254.222 104.622 C 254.072 105.425,254.028 106.162,254.126 106.260 C 254.224 106.357,254.427 105.781,254.578 104.978 C 254.728 104.175,254.772 103.438,254.674 103.340 C 254.576 103.243,254.373 103.819,254.222 104.622 M285.867 106.667 C 285.501 107.033,285.539 166.896,285.906 167.421 C 286.243 167.904,289.200 169.757,289.200 169.486 C 289.200 169.387,288.480 168.830,287.600 168.247 L 286.000 167.189 286.000 137.028 C 286.000 113.273,286.106 106.824,286.500 106.665 C 286.779 106.552,286.809 106.449,286.567 106.432 C 286.328 106.414,286.013 106.520,285.867 106.667 M191.400 107.600 C 191.250 108.073,191.217 108.550,191.327 108.660 C 191.437 108.770,191.650 108.473,191.800 108.000 C 191.950 107.527,191.983 107.050,191.873 106.940 C 191.763 106.830,191.550 107.127,191.400 107.600 M253.450 108.050 C 253.117 109.717,253.440 110.040,253.800 108.400 C 253.952 107.709,253.993 107.059,253.891 106.958 C 253.789 106.856,253.591 107.347,253.450 108.050 M287.200 106.990 C 287.200 107.094,287.785 107.465,288.500 107.814 L 289.800 108.448 288.800 107.633 C 287.837 106.848,287.200 106.592,287.200 106.990 M113.790 138.000 C 113.790 153.730,113.839 160.165,113.900 152.300 C 113.960 144.435,113.960 131.565,113.900 123.700 C 113.839 115.835,113.790 122.270,113.790 138.000 M252.600 111.600 C 252.448 112.291,252.414 112.947,252.524 113.057 C 252.634 113.167,252.848 112.691,253.000 112.000 C 253.152 111.309,253.186 110.653,253.076 110.543 C 252.966 110.433,252.752 110.909,252.600 111.600 M294.800 111.600 C 295.350 112.030,295.980 112.382,296.200 112.382 C 296.420 112.382,296.150 112.030,295.600 111.600 C 295.050 111.170,294.420 110.818,294.200 110.818 C 293.980 110.818,294.250 111.170,294.800 111.600 M298.000 113.344 C 298.000 113.459,299.755 114.583,301.900 115.841 C 304.045 117.099,306.205 118.390,306.700 118.710 C 307.195 119.030,307.600 119.193,307.600 119.073 C 307.600 118.952,306.025 117.915,304.100 116.768 C 302.175 115.622,300.015 114.335,299.300 113.909 C 298.585 113.483,298.000 113.229,298.000 113.344 M189.849 114.215 C 189.712 114.573,189.615 115.166,189.634 115.533 C 189.653 115.900,189.827 115.669,190.021 115.020 C 190.398 113.758,190.265 113.133,189.849 114.215 M251.800 115.200 C 251.648 115.891,251.607 116.541,251.709 116.642 C 251.811 116.744,252.009 116.253,252.150 115.550 C 252.483 113.883,252.160 113.560,251.800 115.200 M189.049 117.415 C 188.912 117.773,188.818 118.456,188.841 118.933 C 188.867 119.481,189.003 119.286,189.210 118.403 C 189.560 116.916,189.465 116.333,189.049 117.415 M188.200 121.200 C 188.048 121.891,188.007 122.541,188.109 122.642 C 188.211 122.744,188.409 122.253,188.550 121.550 C 188.883 119.883,188.560 119.560,188.200 121.200 M309.600 120.420 C 310.987 121.361,311.778 121.635,310.800 120.836 C 310.250 120.386,309.620 120.017,309.400 120.015 C 309.180 120.013,309.270 120.196,309.600 120.420 M312.000 121.790 C 312.000 121.894,312.585 122.265,313.300 122.614 L 314.600 123.248 313.600 122.433 C 312.637 121.648,312.000 121.392,312.000 121.790 M187.449 124.215 C 187.312 124.573,187.218 125.256,187.241 125.733 C 187.267 126.281,187.403 126.086,187.610 125.203 C 187.960 123.716,187.865 123.133,187.449 124.215 M316.000 124.190 C 316.000 124.294,316.585 124.665,317.300 125.014 L 318.600 125.648 317.600 124.833 C 316.637 124.048,316.000 123.792,316.000 124.190 M320.000 126.590 C 320.000 126.694,320.585 127.065,321.300 127.414 L 322.600 128.048 321.600 127.233 C 320.637 126.448,320.000 126.192,320.000 126.590 M186.600 128.000 C 186.448 128.691,186.407 129.341,186.509 129.442 C 186.611 129.544,186.809 129.053,186.950 128.350 C 187.283 126.683,186.960 126.360,186.600 128.000 M248.050 131.450 C 247.564 133.567,247.240 135.373,247.330 135.464 C 247.421 135.554,247.895 133.898,248.383 131.783 C 248.872 129.669,249.196 127.863,249.103 127.770 C 249.010 127.677,248.536 129.333,248.050 131.450 M324.000 128.979 C 324.000 129.089,324.540 129.459,325.200 129.800 C 325.860 130.141,326.400 130.331,326.400 130.221 C 326.400 130.111,325.860 129.741,325.200 129.400 C 324.540 129.059,324.000 128.869,324.000 128.979 M185.800 131.600 C 185.648 132.291,185.607 132.941,185.709 133.042 C 185.811 133.144,186.009 132.653,186.150 131.950 C 186.483 130.283,186.160 129.960,185.800 131.600 M327.566 131.077 C 328.849 132.037,333.200 134.496,333.200 134.261 C 333.200 134.088,331.271 132.924,328.000 131.124 C 326.804 130.466,326.741 130.459,327.566 131.077 M334.200 135.007 C 334.640 135.366,335.360 135.835,335.800 136.051 L 336.600 136.444 335.800 135.793 C 335.360 135.434,334.640 134.965,334.200 134.749 L 333.400 134.356 334.200 135.007 M246.854 136.667 C 246.825 137.144,246.696 137.864,246.570 138.267 C 246.352 138.961,246.364 138.962,246.796 138.288 C 247.047 137.897,247.175 137.177,247.081 136.688 C 246.909 135.801,246.909 135.801,246.854 136.667 M184.256 138.084 C 184.121 138.588,184.027 139.360,184.046 139.800 C 184.065 140.240,184.245 139.898,184.446 139.040 C 184.836 137.378,184.670 136.540,184.256 138.084 M338.000 137.390 C 338.000 137.494,338.585 137.865,339.300 138.214 L 340.600 138.848 339.600 138.033 C 338.637 137.248,338.000 136.992,338.000 137.390 M246.049 139.800 C 246.016 140.240,245.896 141.050,245.783 141.600 L 245.577 142.600 246.006 141.619 C 246.242 141.079,246.361 140.269,246.272 139.819 C 246.113 139.021,246.107 139.021,246.049 139.800 M342.000 139.790 C 342.000 139.894,342.585 140.265,343.300 140.614 L 344.600 141.248 343.600 140.433 C 342.637 139.648,342.000 139.392,342.000 139.790 M245.022 144.222 C 244.872 145.025,244.838 145.772,244.948 145.882 C 245.058 145.992,245.272 145.425,245.422 144.622 C 245.573 143.819,245.606 143.073,245.496 142.963 C 245.386 142.853,245.173 143.419,245.022 144.222 M182.250 146.850 C 181.917 148.517,182.240 148.840,182.600 147.200 C 182.752 146.509,182.793 145.859,182.691 145.758 C 182.589 145.656,182.391 146.147,182.250 146.850 M352.800 146.179 C 352.800 146.289,353.340 146.659,354.000 147.000 C 354.660 147.341,355.200 147.531,355.200 147.421 C 355.200 147.311,354.660 146.941,354.000 146.600 C 353.340 146.259,352.800 146.069,352.800 146.179 M244.250 147.650 C 243.917 149.317,244.240 149.640,244.600 148.000 C 244.752 147.309,244.793 146.659,244.691 146.558 C 244.589 146.456,244.391 146.947,244.250 147.650 M355.600 147.745 C 355.600 147.843,357.625 149.142,360.100 150.631 C 362.575 152.119,365.050 153.610,365.600 153.942 C 366.150 154.275,366.420 154.349,366.200 154.107 C 365.544 153.386,355.600 147.418,355.600 147.745 M181.449 150.215 C 181.312 150.573,181.215 151.166,181.234 151.533 C 181.253 151.900,181.427 151.669,181.621 151.020 C 181.998 149.758,181.865 149.133,181.449 150.215 M243.450 151.250 C 243.117 152.917,243.440 153.240,243.800 151.600 C 243.952 150.909,243.993 150.259,243.891 150.158 C 243.789 150.056,243.591 150.547,243.450 151.250 M180.649 153.415 C 180.512 153.773,180.416 154.456,180.436 154.933 C 180.462 155.547,180.585 155.408,180.859 154.456 C 181.257 153.072,181.094 152.258,180.649 153.415 M242.849 153.600 C 242.816 153.930,242.689 154.650,242.567 155.200 C 242.375 156.064,242.407 156.103,242.799 155.488 C 243.048 155.097,243.175 154.377,243.081 153.888 C 242.986 153.400,242.882 153.270,242.849 153.600 M366.800 154.590 C 366.800 154.694,367.385 155.065,368.100 155.414 L 369.400 156.048 368.400 155.233 C 367.437 154.448,366.800 154.192,366.800 154.590 M179.800 157.200 C 179.648 157.891,179.614 158.547,179.724 158.657 C 179.834 158.767,180.048 158.291,180.200 157.600 C 180.352 156.909,180.386 156.253,180.276 156.143 C 180.166 156.033,179.952 156.509,179.800 157.200 M242.054 157.267 C 242.025 157.634,241.884 158.264,241.741 158.667 C 241.541 159.233,241.595 159.296,241.975 158.946 C 242.246 158.697,242.387 158.067,242.288 157.546 C 242.190 157.026,242.084 156.900,242.054 157.267 M371.200 157.220 C 372.587 158.161,373.378 158.435,372.400 157.636 C 371.850 157.186,371.220 156.817,371.000 156.815 C 370.780 156.813,370.870 156.996,371.200 157.220 M374.800 159.390 C 374.800 159.494,375.385 159.865,376.100 160.214 L 377.400 160.848 376.400 160.033 C 375.437 159.248,374.800 158.992,374.800 159.390 M179.000 160.800 C 178.848 161.491,178.807 162.141,178.909 162.242 C 179.011 162.344,179.209 161.853,179.350 161.150 C 179.683 159.483,179.360 159.160,179.000 160.800 M241.246 160.667 C 241.221 160.924,241.084 161.464,240.941 161.867 C 240.740 162.436,240.794 162.497,241.179 162.142 C 241.452 161.891,241.589 161.351,241.484 160.942 C 241.379 160.534,241.272 160.410,241.246 160.667 M378.800 161.779 C 378.800 161.889,379.340 162.259,380.000 162.600 C 380.660 162.941,381.200 163.131,381.200 163.021 C 381.200 162.911,380.660 162.541,380.000 162.200 C 379.340 161.859,378.800 161.669,378.800 161.779 M178.229 164.229 C 178.081 164.815,178.038 165.372,178.132 165.466 C 178.227 165.560,178.424 165.158,178.571 164.571 C 178.719 163.985,178.762 163.428,178.668 163.334 C 178.573 163.240,178.376 163.642,178.229 164.229 M382.591 199.000 C 382.591 217.920,382.640 225.601,382.700 216.070 C 382.760 206.538,382.760 191.058,382.700 181.670 C 382.640 172.281,382.591 180.080,382.591 199.000 M177.473 167.353 C 177.323 167.745,177.211 168.366,177.225 168.733 C 177.242 169.175,177.381 169.074,177.637 168.434 C 177.849 167.903,177.961 167.282,177.885 167.054 C 177.809 166.827,177.624 166.961,177.473 167.353 M239.646 167.467 C 239.621 167.724,239.484 168.264,239.341 168.667 C 239.140 169.236,239.194 169.297,239.579 168.942 C 239.852 168.691,239.989 168.151,239.884 167.742 C 239.779 167.334,239.672 167.210,239.646 167.467 M176.667 170.667 C 176.520 170.813,176.415 171.398,176.434 171.967 C 176.468 172.981,176.475 172.979,176.821 171.820 C 177.185 170.603,177.131 170.202,176.667 170.667 M292.000 171.167 C 292.963 171.952,293.600 172.208,293.600 171.810 C 293.600 171.706,293.015 171.335,292.300 170.986 L 291.000 170.352 292.000 171.167 M238.600 171.600 C 238.450 172.073,238.417 172.550,238.527 172.660 C 238.637 172.770,238.850 172.473,239.000 172.000 C 239.150 171.527,239.183 171.050,239.073 170.940 C 238.963 170.830,238.750 171.127,238.600 171.600 M294.000 172.179 C 294.000 172.289,294.540 172.659,295.200 173.000 C 295.860 173.341,296.400 173.531,296.400 173.421 C 296.400 173.311,295.860 172.941,295.200 172.600 C 294.540 172.259,294.000 172.069,294.000 172.179 M175.849 174.215 C 175.712 174.573,175.616 175.256,175.636 175.733 C 175.662 176.347,175.785 176.208,176.059 175.256 C 176.457 173.872,176.294 173.058,175.849 174.215 M237.800 175.200 C 237.648 175.891,237.607 176.541,237.709 176.642 C 237.811 176.744,238.009 176.253,238.150 175.550 C 238.483 173.883,238.160 173.560,237.800 175.200 M302.000 176.767 C 302.963 177.552,303.600 177.808,303.600 177.410 C 303.600 177.306,303.015 176.935,302.300 176.586 L 301.000 175.952 302.000 176.767 M175.000 178.000 C 174.848 178.691,174.814 179.347,174.924 179.457 C 175.034 179.567,175.248 179.091,175.400 178.400 C 175.552 177.709,175.586 177.053,175.476 176.943 C 175.366 176.833,175.152 177.309,175.000 178.000 M237.022 178.622 C 236.872 179.425,236.828 180.162,236.926 180.260 C 237.024 180.357,237.227 179.781,237.378 178.978 C 237.528 178.175,237.572 177.438,237.474 177.340 C 237.376 177.243,237.173 177.819,237.022 178.622 M304.000 177.779 C 304.000 177.889,304.540 178.259,305.200 178.600 C 305.860 178.941,306.400 179.131,306.400 179.021 C 306.400 178.911,305.860 178.541,305.200 178.200 C 304.540 177.859,304.000 177.669,304.000 177.779 M174.178 181.378 C 174.027 182.181,173.994 182.927,174.104 183.037 C 174.214 183.147,174.427 182.581,174.578 181.778 C 174.728 180.975,174.762 180.228,174.652 180.118 C 174.542 180.008,174.328 180.575,174.178 181.378 M309.000 180.606 C 309.895 181.341,313.227 183.103,312.600 182.510 C 312.380 182.302,311.300 181.641,310.200 181.041 C 309.100 180.441,308.560 180.245,309.000 180.606 M236.250 182.050 C 235.917 183.717,236.240 184.040,236.600 182.400 C 236.752 181.709,236.793 181.059,236.691 180.958 C 236.589 180.856,236.391 181.347,236.250 182.050 M314.000 183.384 C 314.000 183.494,314.720 183.951,315.600 184.400 C 316.480 184.849,317.200 185.126,317.200 185.016 C 317.200 184.906,316.480 184.449,315.600 184.000 C 314.720 183.551,314.000 183.274,314.000 183.384 M173.400 184.800 C 173.248 185.491,173.214 186.147,173.324 186.257 C 173.434 186.367,173.648 185.891,173.800 185.200 C 173.952 184.509,173.986 183.853,173.876 183.743 C 173.766 183.633,173.552 184.109,173.400 184.800 M235.429 185.429 C 235.281 186.015,235.238 186.572,235.332 186.666 C 235.427 186.760,235.624 186.358,235.771 185.771 C 235.919 185.185,235.962 184.628,235.868 184.534 C 235.773 184.440,235.576 184.842,235.429 185.429 M317.600 185.379 C 317.600 185.489,318.140 185.859,318.800 186.200 C 319.460 186.541,320.000 186.731,320.000 186.621 C 320.000 186.511,319.460 186.141,318.800 185.800 C 318.140 185.459,317.600 185.269,317.600 185.379 M320.400 186.979 C 320.400 187.089,320.940 187.459,321.600 187.800 C 322.260 188.141,322.800 188.331,322.800 188.221 C 322.800 188.111,322.260 187.741,321.600 187.400 C 320.940 187.059,320.400 186.869,320.400 186.979 M172.600 188.400 C 172.448 189.091,172.414 189.747,172.524 189.857 C 172.634 189.967,172.848 189.491,173.000 188.800 C 173.152 188.109,173.186 187.453,173.076 187.343 C 172.966 187.233,172.752 187.709,172.600 188.400 M234.600 189.200 C 234.448 189.891,234.407 190.541,234.509 190.642 C 234.611 190.744,234.809 190.253,234.950 189.550 C 235.283 187.883,234.960 187.560,234.600 189.200 M171.849 191.415 C 171.712 191.773,171.616 192.456,171.636 192.933 C 171.662 193.547,171.785 193.408,172.059 192.456 C 172.457 191.072,172.294 190.258,171.849 191.415 M233.856 192.084 C 233.721 192.588,233.627 193.360,233.646 193.800 C 233.665 194.240,233.845 193.898,234.046 193.040 C 234.436 191.378,234.270 190.540,233.856 192.084 M171.056 194.884 C 170.921 195.388,170.827 196.160,170.846 196.600 C 170.865 197.040,171.045 196.698,171.246 195.840 C 171.636 194.178,171.470 193.340,171.056 194.884 M333.200 194.179 C 333.200 194.289,333.740 194.659,334.400 195.000 C 335.060 195.341,335.600 195.531,335.600 195.421 C 335.600 195.311,335.060 194.941,334.400 194.600 C 333.740 194.259,333.200 194.069,333.200 194.179 M336.000 195.779 C 336.000 195.889,336.540 196.259,337.200 196.600 C 337.860 196.941,338.400 197.131,338.400 197.021 C 338.400 196.911,337.860 196.541,337.200 196.200 C 336.540 195.859,336.000 195.669,336.000 195.779 M232.854 196.667 C 232.825 197.144,232.696 197.864,232.570 198.267 C 232.352 198.961,232.364 198.962,232.796 198.288 C 233.047 197.897,233.175 197.177,233.081 196.688 C 232.909 195.801,232.909 195.801,232.854 196.667 M170.200 198.800 C 170.048 199.491,170.007 200.141,170.109 200.242 C 170.211 200.344,170.409 199.853,170.550 199.150 C 170.883 197.483,170.560 197.160,170.200 198.800 M340.400 198.102 C 340.400 198.183,340.940 198.649,341.600 199.137 C 342.260 199.625,342.800 199.877,342.800 199.698 C 342.800 199.519,342.260 199.054,341.600 198.664 C 340.940 198.274,340.400 198.021,340.400 198.102 M231.850 200.850 C 231.517 202.517,231.840 202.840,232.200 201.200 C 232.352 200.509,232.393 199.859,232.291 199.758 C 232.189 199.656,231.991 200.147,231.850 200.850 M169.422 202.222 C 169.272 203.025,169.228 203.762,169.326 203.860 C 169.424 203.957,169.627 203.381,169.778 202.578 C 169.928 201.775,169.972 201.038,169.874 200.940 C 169.776 200.843,169.573 201.419,169.422 202.222 M60.800 201.784 C 60.800 201.894,61.520 202.351,62.400 202.800 C 63.280 203.249,64.000 203.526,64.000 203.416 C 64.000 203.306,63.280 202.849,62.400 202.400 C 61.520 201.951,60.800 201.674,60.800 201.784 M64.400 203.779 C 64.400 203.889,64.940 204.259,65.600 204.600 C 66.260 204.941,66.800 205.131,66.800 205.021 C 66.800 204.911,66.260 204.541,65.600 204.200 C 64.940 203.859,64.400 203.669,64.400 203.779 M168.622 205.822 C 168.472 206.625,168.428 207.362,168.526 207.460 C 168.624 207.557,168.827 206.981,168.978 206.178 C 169.128 205.375,169.172 204.638,169.074 204.540 C 168.976 204.443,168.773 205.019,168.622 205.822 M67.600 205.620 C 68.987 206.561,69.778 206.835,68.800 206.036 C 68.250 205.586,67.620 205.217,67.400 205.215 C 67.180 205.213,67.270 205.396,67.600 205.620 M230.222 207.822 C 230.072 208.625,230.028 209.362,230.126 209.460 C 230.224 209.557,230.427 208.981,230.578 208.178 C 230.728 207.375,230.772 206.638,230.674 206.540 C 230.576 206.443,230.373 207.019,230.222 207.822 M167.849 209.015 C 167.712 209.373,167.615 209.966,167.634 210.333 C 167.653 210.700,167.827 210.469,168.021 209.820 C 168.398 208.558,168.265 207.933,167.849 209.015 M229.450 211.250 C 229.309 211.953,229.269 212.602,229.359 212.692 C 229.450 212.783,229.648 212.291,229.800 211.600 C 229.952 210.909,229.993 210.259,229.891 210.158 C 229.789 210.056,229.591 210.547,229.450 211.250 M77.200 210.979 C 77.200 211.089,77.740 211.459,78.400 211.800 C 79.060 212.141,79.600 212.331,79.600 212.221 C 79.600 212.111,79.060 211.741,78.400 211.400 C 77.740 211.059,77.200 210.869,77.200 210.979 M166.274 215.874 C 165.890 217.543,165.649 218.982,165.737 219.071 C 165.826 219.160,166.219 217.872,166.611 216.211 C 167.002 214.549,167.243 213.110,167.147 213.013 C 167.050 212.917,166.657 214.204,166.274 215.874 M81.600 213.379 C 81.600 213.489,82.140 213.859,82.800 214.200 C 83.460 214.541,84.000 214.731,84.000 214.621 C 84.000 214.511,83.460 214.141,82.800 213.800 C 82.140 213.459,81.600 213.269,81.600 213.379 M228.849 213.800 C 228.816 214.240,228.696 215.050,228.583 215.600 L 228.377 216.600 228.806 215.619 C 229.042 215.079,229.161 214.269,229.072 213.819 C 228.913 213.021,228.907 213.021,228.849 213.800 M84.400 214.979 C 84.400 215.089,84.940 215.459,85.600 215.800 C 86.260 216.141,86.800 216.331,86.800 216.221 C 86.800 216.111,86.260 215.741,85.600 215.400 C 84.940 215.059,84.400 214.869,84.400 214.979 M87.400 216.694 C 87.620 216.903,89.060 217.737,90.600 218.547 C 92.140 219.358,93.040 219.732,92.600 219.378 C 91.686 218.644,86.790 216.116,87.400 216.694 M228.049 217.200 C 228.016 217.530,227.889 218.250,227.767 218.800 C 227.575 219.664,227.607 219.703,227.999 219.088 C 228.248 218.697,228.375 217.977,228.281 217.488 C 228.186 217.000,228.082 216.870,228.049 217.200 M165.029 221.029 C 164.881 221.615,164.838 222.172,164.932 222.266 C 165.027 222.360,165.224 221.958,165.371 221.371 C 165.519 220.785,165.562 220.228,165.468 220.134 C 165.373 220.040,165.176 220.442,165.029 221.029 M227.000 221.600 C 226.848 222.291,226.814 222.947,226.924 223.057 C 227.034 223.167,227.248 222.691,227.400 222.000 C 227.552 221.309,227.586 220.653,227.476 220.543 C 227.366 220.433,227.152 220.909,227.000 221.600 M95.200 220.979 C 95.200 221.089,95.740 221.459,96.400 221.800 C 97.060 222.141,97.600 222.331,97.600 222.221 C 97.600 222.111,97.060 221.741,96.400 221.400 C 95.740 221.059,95.200 220.869,95.200 220.979 M98.000 222.590 C 98.000 222.694,98.585 223.065,99.300 223.414 L 100.600 224.048 99.600 223.233 C 98.637 222.448,98.000 222.192,98.000 222.590 M164.229 224.629 C 164.081 225.215,164.038 225.772,164.132 225.866 C 164.227 225.960,164.424 225.558,164.571 224.971 C 164.719 224.385,164.762 223.828,164.668 223.734 C 164.573 223.640,164.376 224.042,164.229 224.629 M226.200 225.200 C 226.048 225.891,226.014 226.547,226.124 226.657 C 226.234 226.767,226.448 226.291,226.600 225.600 C 226.752 224.909,226.786 224.253,226.676 224.143 C 226.566 224.033,226.352 224.509,226.200 225.200 M105.200 226.579 C 105.200 226.689,105.740 227.059,106.400 227.400 C 107.060 227.741,107.600 227.931,107.600 227.821 C 107.600 227.711,107.060 227.341,106.400 227.000 C 105.740 226.659,105.200 226.469,105.200 226.579 M163.400 228.000 C 163.248 228.691,163.207 229.341,163.309 229.442 C 163.411 229.544,163.609 229.053,163.750 228.350 C 164.083 226.683,163.760 226.360,163.400 228.000 M225.649 227.600 C 225.616 227.930,225.489 228.650,225.367 229.200 C 225.175 230.064,225.207 230.103,225.599 229.488 C 225.848 229.097,225.975 228.377,225.881 227.888 C 225.786 227.400,225.682 227.270,225.649 227.600 M112.903 231.034 C 113.814 232.117,113.811 291.882,112.900 291.700 C 112.625 291.645,112.400 291.793,112.400 292.029 C 112.400 292.265,112.715 292.398,113.100 292.324 C 113.758 292.197,113.806 290.385,113.902 261.959 L 114.005 231.729 113.102 230.964 L 112.200 230.200 112.903 231.034 M162.600 231.600 C 162.448 232.291,162.407 232.941,162.509 233.042 C 162.611 233.144,162.809 232.653,162.950 231.950 C 163.283 230.283,162.960 229.960,162.600 231.600 M224.846 231.267 C 224.821 231.634,224.696 232.264,224.570 232.667 C 224.352 233.362,224.363 233.363,224.797 232.687 C 225.048 232.296,225.173 231.666,225.073 231.287 C 224.911 230.668,224.888 230.666,224.846 231.267 M285.790 261.600 C 285.790 277.990,285.839 284.695,285.900 276.500 C 285.960 268.305,285.960 254.895,285.900 246.700 C 285.839 238.505,285.790 245.210,285.790 261.600 M17.232 233.686 C 17.214 234.063,17.605 234.568,18.100 234.808 C 18.863 235.178,18.904 235.165,18.365 234.722 C 18.016 234.435,17.625 233.930,17.496 233.600 C 17.307 233.114,17.257 233.130,17.232 233.686 M161.829 235.029 C 161.681 235.615,161.638 236.172,161.732 236.266 C 161.827 236.360,162.024 235.958,162.171 235.371 C 162.319 234.785,162.362 234.228,162.268 234.134 C 162.173 234.040,161.976 234.442,161.829 235.029 M224.049 234.400 C 224.016 234.730,223.889 235.450,223.767 236.000 C 223.575 236.864,223.607 236.903,223.999 236.288 C 224.248 235.897,224.375 235.177,224.281 234.688 C 224.186 234.200,224.082 234.070,224.049 234.400 M19.200 235.423 C 19.200 235.723,22.471 237.663,22.659 237.475 C 22.759 237.374,22.022 236.834,21.021 236.274 C 20.019 235.714,19.200 235.331,19.200 235.423 M161.029 238.629 C 160.881 239.215,160.838 239.772,160.932 239.866 C 161.027 239.960,161.224 239.558,161.371 238.971 C 161.519 238.385,161.562 237.828,161.468 237.734 C 161.373 237.640,161.176 238.042,161.029 238.629 M223.246 238.067 C 223.221 238.434,223.096 239.064,222.970 239.467 C 222.752 240.162,222.763 240.163,223.197 239.487 C 223.448 239.096,223.573 238.466,223.473 238.087 C 223.311 237.468,223.288 237.466,223.246 238.067 M25.200 239.167 C 26.163 239.952,26.800 240.208,26.800 239.810 C 26.800 239.706,26.215 239.335,25.500 238.986 L 24.200 238.352 25.200 239.167 M222.229 242.229 C 222.081 242.815,222.051 243.384,222.161 243.494 C 222.271 243.604,222.481 243.215,222.629 242.629 C 222.776 242.042,222.806 241.473,222.696 241.363 C 222.586 241.253,222.376 241.642,222.229 242.229 M33.600 244.114 C 33.600 244.355,36.706 246.400,37.071 246.400 C 37.230 246.400,37.189 246.249,36.980 246.064 C 36.352 245.508,33.600 243.921,33.600 244.114 M221.429 245.829 C 221.281 246.415,221.238 246.972,221.332 247.066 C 221.427 247.160,221.624 246.758,221.771 246.171 C 221.919 245.585,221.962 245.028,221.868 244.934 C 221.773 244.840,221.576 245.242,221.429 245.829 M38.400 247.133 C 39.543 248.079,42.400 249.744,42.400 249.465 C 42.400 249.363,41.799 248.925,41.065 248.492 C 40.331 248.059,39.206 247.389,38.565 247.005 L 37.400 246.305 38.400 247.133 M158.667 248.267 C 158.520 248.413,158.415 248.998,158.434 249.567 C 158.468 250.581,158.475 250.579,158.821 249.420 C 159.185 248.203,159.131 247.802,158.667 248.267 M220.600 249.200 C 220.448 249.891,220.414 250.547,220.524 250.657 C 220.634 250.767,220.848 250.291,221.000 249.600 C 221.152 248.909,221.186 248.253,221.076 248.143 C 220.966 248.033,220.752 248.509,220.600 249.200 M45.000 251.090 C 45.220 251.300,46.120 251.876,47.000 252.370 C 47.880 252.865,48.240 252.970,47.800 252.604 C 46.906 251.861,44.372 250.491,45.000 251.090 M157.867 251.467 C 157.720 251.613,157.615 252.198,157.634 252.767 C 157.668 253.781,157.675 253.779,158.021 252.620 C 158.385 251.403,158.331 251.002,157.867 251.467 M219.822 252.622 C 219.672 253.425,219.638 254.172,219.748 254.282 C 219.858 254.392,220.072 253.825,220.222 253.022 C 220.373 252.219,220.406 251.473,220.296 251.363 C 220.186 251.253,219.973 251.819,219.822 252.622 M49.600 253.967 C 50.563 254.752,51.200 255.008,51.200 254.610 C 51.200 254.506,50.615 254.135,49.900 253.786 L 48.600 253.152 49.600 253.967 M157.049 255.015 C 156.912 255.373,156.816 256.056,156.836 256.533 C 156.862 257.147,156.985 257.008,157.259 256.056 C 157.657 254.672,157.494 253.858,157.049 255.015 M219.050 256.050 C 218.909 256.753,218.869 257.402,218.959 257.492 C 219.050 257.583,219.248 257.091,219.400 256.400 C 219.552 255.709,219.593 255.059,219.491 254.958 C 219.389 254.856,219.191 255.347,219.050 256.050 M156.178 258.978 C 156.027 259.781,155.994 260.527,156.104 260.637 C 156.214 260.747,156.427 260.181,156.578 259.378 C 156.728 258.575,156.762 257.828,156.652 257.718 C 156.542 257.608,156.328 258.175,156.178 258.978 M218.250 259.650 C 218.109 260.353,218.069 261.002,218.159 261.092 C 218.250 261.183,218.448 260.691,218.600 260.000 C 218.752 259.309,218.793 258.659,218.691 258.558 C 218.589 258.456,218.391 258.947,218.250 259.650 M59.024 259.787 C 59.451 260.110,59.980 260.375,60.200 260.375 C 60.420 260.375,60.251 260.110,59.824 259.787 C 59.396 259.464,58.867 259.200,58.647 259.200 C 58.427 259.200,58.596 259.464,59.024 259.787 M62.800 261.964 C 63.350 262.414,63.980 262.783,64.200 262.785 C 64.628 262.788,63.905 262.234,62.600 261.560 C 62.069 261.285,62.136 261.421,62.800 261.964 M155.400 262.400 C 155.248 263.091,155.214 263.747,155.324 263.857 C 155.434 263.967,155.648 263.491,155.800 262.800 C 155.952 262.109,155.986 261.453,155.876 261.343 C 155.766 261.233,155.552 261.709,155.400 262.400 M217.400 263.200 C 217.248 263.891,217.207 264.541,217.309 264.642 C 217.411 264.744,217.609 264.253,217.750 263.550 C 217.891 262.847,217.931 262.198,217.841 262.108 C 217.750 262.017,217.552 262.509,217.400 263.200 M66.600 264.207 C 67.040 264.566,67.760 265.035,68.200 265.251 L 69.000 265.644 68.200 264.993 C 67.760 264.634,67.040 264.165,66.600 263.949 L 65.800 263.556 66.600 264.207 M154.600 266.000 C 154.448 266.691,154.407 267.341,154.509 267.442 C 154.611 267.544,154.809 267.053,154.950 266.350 C 155.283 264.683,154.960 264.360,154.600 266.000 M69.400 265.890 C 69.620 266.100,70.520 266.676,71.400 267.170 C 72.280 267.665,72.640 267.770,72.200 267.404 C 71.306 266.661,68.772 265.291,69.400 265.890 M216.649 266.215 C 216.512 266.573,216.418 267.256,216.441 267.733 C 216.467 268.281,216.603 268.086,216.810 267.203 C 217.160 265.716,217.065 265.133,216.649 266.215 M73.800 268.611 C 74.240 268.969,75.140 269.526,75.800 269.850 C 76.922 270.401,76.948 270.397,76.200 269.789 C 75.760 269.431,74.860 268.874,74.200 268.550 C 73.078 267.999,73.052 268.003,73.800 268.611 M153.849 269.015 C 153.712 269.373,153.618 270.056,153.641 270.533 C 153.667 271.081,153.803 270.886,154.010 270.003 C 154.360 268.516,154.265 267.933,153.849 269.015 M77.800 270.996 C 78.694 271.739,81.228 273.109,80.600 272.510 C 80.380 272.300,79.480 271.724,78.600 271.230 C 77.720 270.735,77.360 270.630,77.800 270.996 M152.831 273.631 C 152.585 274.778,152.460 275.793,152.553 275.886 C 152.646 275.979,152.923 275.117,153.169 273.969 C 153.415 272.822,153.540 271.807,153.447 271.714 C 153.354 271.621,153.077 272.483,152.831 273.631 M214.854 273.867 C 214.825 274.344,214.696 275.064,214.570 275.467 C 214.352 276.161,214.364 276.162,214.796 275.488 C 215.047 275.097,215.175 274.377,215.081 273.888 C 214.909 273.001,214.909 273.001,214.854 273.867 M87.200 276.767 C 88.163 277.552,88.800 277.808,88.800 277.410 C 88.800 277.306,88.215 276.935,87.500 276.586 L 86.200 275.952 87.200 276.767 M93.200 280.112 C 93.200 280.306,95.201 281.613,98.500 283.574 C 99.325 284.064,100.000 284.369,100.000 284.252 C 100.000 284.134,98.942 283.418,97.648 282.660 C 96.355 281.902,94.825 280.973,94.248 280.595 C 93.672 280.217,93.200 280.000,93.200 280.112 M151.022 281.422 C 150.872 282.225,150.828 282.962,150.926 283.060 C 151.024 283.157,151.227 282.581,151.378 281.778 C 151.528 280.975,151.572 280.238,151.474 280.140 C 151.376 280.043,151.173 280.619,151.022 281.422 M213.022 281.822 C 212.872 282.625,212.828 283.362,212.926 283.460 C 213.024 283.557,213.227 282.981,213.378 282.178 C 213.528 281.375,213.572 280.638,213.474 280.540 C 213.376 280.443,213.173 281.019,213.022 281.822 M150.200 284.800 C 150.048 285.491,150.007 286.141,150.109 286.242 C 150.211 286.344,150.409 285.853,150.550 285.150 C 150.883 283.483,150.560 283.160,150.200 284.800 M212.250 285.250 C 212.109 285.953,212.069 286.602,212.159 286.692 C 212.250 286.783,212.448 286.291,212.600 285.600 C 212.752 284.909,212.793 284.259,212.691 284.158 C 212.589 284.056,212.391 284.547,212.250 285.250 M101.600 285.379 C 101.600 285.489,102.140 285.859,102.800 286.200 C 103.460 286.541,104.000 286.731,104.000 286.621 C 104.000 286.511,103.460 286.141,102.800 285.800 C 102.140 285.459,101.600 285.269,101.600 285.379 M148.640 291.640 C 148.032 294.295,147.609 296.542,147.700 296.633 C 147.791 296.725,148.364 294.628,148.973 291.973 C 149.582 289.319,150.005 287.072,149.913 286.980 C 149.821 286.888,149.248 288.985,148.640 291.640 M211.654 287.867 C 211.625 288.344,211.496 289.064,211.370 289.467 C 211.152 290.161,211.164 290.162,211.596 289.488 C 211.847 289.097,211.975 288.377,211.881 287.888 C 211.709 287.001,211.709 287.001,211.654 287.867 M110.400 290.767 C 111.363 291.552,112.000 291.808,112.000 291.410 C 112.000 291.306,111.415 290.935,110.700 290.586 L 109.400 289.952 110.400 290.767 M210.854 291.267 C 210.825 291.634,210.684 292.264,210.541 292.667 C 210.341 293.233,210.395 293.296,210.775 292.946 C 211.046 292.697,211.187 292.067,211.088 291.546 C 210.990 291.026,210.884 290.900,210.854 291.267 M209.829 295.429 C 209.681 296.015,209.651 296.584,209.761 296.694 C 209.871 296.804,210.081 296.415,210.229 295.829 C 210.376 295.242,210.406 294.673,210.296 294.563 C 210.186 294.453,209.976 294.842,209.829 295.429 M147.022 298.622 C 146.872 299.425,146.828 300.162,146.926 300.260 C 147.024 300.357,147.227 299.781,147.378 298.978 C 147.528 298.175,147.572 297.438,147.474 297.340 C 147.376 297.243,147.173 297.819,147.022 298.622 M146.200 302.400 C 146.048 303.091,146.007 303.741,146.109 303.842 C 146.211 303.944,146.409 303.453,146.550 302.750 C 146.883 301.083,146.560 300.760,146.200 302.400 M145.400 305.600 C 145.248 306.291,145.214 306.947,145.324 307.057 C 145.434 307.167,145.648 306.691,145.800 306.000 C 145.952 305.309,145.986 304.653,145.876 304.543 C 145.766 304.433,145.552 304.909,145.400 305.600 M207.473 305.353 C 207.323 305.745,207.211 306.366,207.225 306.733 C 207.242 307.175,207.381 307.074,207.637 306.434 C 207.849 305.903,207.961 305.282,207.885 305.054 C 207.809 304.827,207.624 304.961,207.473 305.353 M144.600 309.200 C 144.448 309.891,144.414 310.547,144.524 310.657 C 144.634 310.767,144.848 310.291,145.000 309.600 C 145.152 308.909,145.186 308.253,145.076 308.143 C 144.966 308.033,144.752 308.509,144.600 309.200 M206.600 309.200 C 206.448 309.891,206.414 310.547,206.524 310.657 C 206.634 310.767,206.848 310.291,207.000 309.600 C 207.152 308.909,207.186 308.253,207.076 308.143 C 206.966 308.033,206.752 308.509,206.600 309.200 M205.822 312.622 C 205.672 313.425,205.638 314.172,205.748 314.282 C 205.858 314.392,206.072 313.825,206.222 313.022 C 206.373 312.219,206.406 311.473,206.296 311.363 C 206.186 311.253,205.973 311.819,205.822 312.622 M205.249 315.200 C 205.216 315.530,205.089 316.250,204.967 316.800 C 204.775 317.664,204.807 317.703,205.199 317.088 C 205.448 316.697,205.575 315.977,205.481 315.488 C 205.386 315.000,205.282 314.870,205.249 315.200 M204.222 319.822 C 204.072 320.625,204.028 321.362,204.126 321.460 C 204.224 321.557,204.427 320.981,204.578 320.178 C 204.728 319.375,204.772 318.638,204.674 318.540 C 204.576 318.443,204.373 319.019,204.222 319.822 M203.400 323.200 C 203.248 323.891,203.207 324.541,203.309 324.642 C 203.411 324.744,203.609 324.253,203.750 323.550 C 204.083 321.883,203.760 321.560,203.400 323.200 M141.467 322.667 C 141.320 322.813,141.211 323.308,141.225 323.767 C 141.249 324.533,141.282 324.523,141.634 323.642 C 142.026 322.663,141.944 322.189,141.467 322.667 M202.622 326.622 C 202.472 327.425,202.428 328.162,202.526 328.260 C 202.624 328.357,202.827 327.781,202.978 326.978 C 203.128 326.175,203.172 325.438,203.074 325.340 C 202.976 325.243,202.773 325.819,202.622 326.622 M140.667 325.867 C 140.520 326.013,140.415 326.598,140.434 327.167 C 140.468 328.181,140.475 328.179,140.821 327.020 C 141.185 325.803,141.131 325.402,140.667 325.867 M139.849 329.415 C 139.712 329.773,139.616 330.456,139.636 330.933 C 139.662 331.547,139.785 331.408,140.059 330.456 C 140.457 329.072,140.294 328.258,139.849 329.415 M201.850 330.050 C 201.517 331.717,201.840 332.040,202.200 330.400 C 202.352 329.709,202.393 329.059,202.291 328.958 C 202.189 328.856,201.991 329.347,201.850 330.050 M139.000 333.200 C 138.848 333.891,138.807 334.541,138.909 334.642 C 139.011 334.744,139.209 334.253,139.350 333.550 C 139.683 331.883,139.360 331.560,139.000 333.200 M201.249 332.600 C 201.216 333.040,201.096 333.850,200.983 334.400 L 200.777 335.400 201.206 334.419 C 201.442 333.879,201.561 333.069,201.472 332.619 C 201.313 331.821,201.307 331.821,201.249 332.600 M138.200 336.800 C 138.048 337.491,138.007 338.141,138.109 338.242 C 138.211 338.344,138.409 337.853,138.550 337.150 C 138.883 335.483,138.560 335.160,138.200 336.800 M200.222 337.022 C 200.072 337.825,200.028 338.562,200.126 338.660 C 200.224 338.757,200.427 338.181,200.578 337.378 C 200.728 336.575,200.772 335.838,200.674 335.740 C 200.576 335.643,200.373 336.219,200.222 337.022 M199.231 341.231 C 198.985 342.378,198.860 343.393,198.953 343.486 C 199.046 343.579,199.323 342.717,199.569 341.569 C 199.815 340.422,199.940 339.407,199.847 339.314 C 199.754 339.221,199.477 340.083,199.231 341.231 M137.449 340.215 C 137.312 340.573,137.215 341.166,137.234 341.533 C 137.253 341.900,137.427 341.669,137.621 341.020 C 137.998 339.758,137.865 339.133,137.449 340.215 M136.649 343.415 C 136.512 343.773,136.415 344.366,136.434 344.733 C 136.453 345.100,136.627 344.869,136.821 344.220 C 137.198 342.958,137.065 342.333,136.649 343.415 M135.818 346.744 C 135.130 348.911,133.483 348.800,166.410 348.800 C 196.043 348.800,198.000 348.745,198.000 347.908 C 198.000 347.656,197.794 347.673,197.456 347.954 C 197.060 348.282,188.649 348.377,166.556 348.303 L 136.200 348.200 136.275 347.100 C 136.362 345.829,136.158 345.671,135.818 346.744 " stroke="none" fill="#c4c8e4" fill-rule="evenodd"></path></g></svg>